G75*
G70*
%OFA0B0*%
%FSLAX24Y24*%
%IPPOS*%
%LPD*%
%AMOC8*
5,1,8,0,0,1.08239X$1,22.5*
%
%ADD10R,0.0236X0.0900*%
%ADD11R,0.0850X0.0420*%
%ADD12R,0.0750X0.4050*%
%ADD13R,0.1100X0.1500*%
%ADD14R,0.0709X0.0630*%
%ADD15R,0.0394X0.0551*%
%ADD16R,0.1516X0.2165*%
%ADD17R,0.0984X0.1693*%
%ADD18R,0.1181X0.1575*%
D10*
X012654Y009212D03*
X013154Y009212D03*
X013654Y009212D03*
X014154Y009212D03*
X014154Y011834D03*
X013654Y011834D03*
X013154Y011834D03*
X012654Y011834D03*
D11*
X018020Y015310D03*
X018020Y015980D03*
X018020Y016650D03*
X018020Y017320D03*
X018020Y017990D03*
D12*
X023225Y016625D03*
D13*
X023782Y006876D03*
X026682Y006876D03*
X004090Y013280D03*
X001190Y013280D03*
D14*
X004100Y005699D03*
X004100Y007001D03*
X012300Y006401D03*
X012300Y005099D03*
X014700Y005099D03*
X014700Y006401D03*
X006250Y012249D03*
X006250Y013551D03*
X011700Y015449D03*
X011700Y016751D03*
X015453Y016801D03*
X015453Y015499D03*
D15*
X013918Y015667D03*
X013170Y015667D03*
X013544Y016533D03*
D16*
X023180Y011312D03*
X027097Y011312D03*
D17*
X019450Y011653D03*
X019450Y008385D03*
X019450Y005797D03*
X019450Y002530D03*
D18*
X006281Y007995D03*
X006281Y010081D03*
M02*
