G75*
G70*
%OFA0B0*%
%FSLAX24Y24*%
%IPPOS*%
%LPD*%
%AMOC8*
5,1,8,0,0,1.08239X$1,22.5*
%
%ADD10C,0.0520*%
%ADD11C,0.0600*%
%ADD12OC8,0.0600*%
%ADD13C,0.0600*%
%ADD14C,0.0560*%
%ADD15C,0.1310*%
%ADD16C,0.0591*%
%ADD17OC8,0.0984*%
%ADD18OC8,0.0850*%
%ADD19C,0.0396*%
%ADD20C,0.0160*%
%ADD21OC8,0.0396*%
%ADD22R,0.0396X0.0396*%
D10*
X012300Y002250D03*
X012300Y003250D03*
X014700Y003250D03*
X014700Y002250D03*
D11*
X007785Y015550D03*
D12*
X008785Y015550D03*
X009785Y015550D03*
X009785Y016550D03*
X008785Y016550D03*
X007785Y016550D03*
D13*
X008350Y010988D02*
X008350Y010388D01*
X009350Y010388D02*
X009350Y010988D01*
X009350Y008650D02*
X009350Y008050D01*
X008350Y008050D02*
X008350Y008650D01*
X002800Y009050D02*
X002200Y009050D01*
X002200Y010050D02*
X002800Y010050D01*
D14*
X028924Y011262D03*
X028924Y012242D03*
X028924Y013032D03*
X028924Y014012D03*
D15*
X029994Y015222D03*
X029994Y010052D03*
D16*
X030476Y007387D03*
X030476Y005615D03*
D17*
X029492Y005123D03*
X029492Y007879D03*
D18*
X008350Y002105D03*
X008350Y005334D03*
D19*
X011700Y009200D03*
X010200Y010600D03*
X011100Y012000D03*
X010200Y012500D03*
X011700Y012950D03*
X013300Y012950D03*
X014150Y012950D03*
X014600Y013450D03*
X014150Y013900D03*
X015350Y013450D03*
X014600Y014950D03*
X014950Y010900D03*
D20*
X014950Y008050D01*
X014650Y007750D01*
X013850Y007750D01*
X013600Y007500D01*
X013600Y000950D01*
X013750Y000800D01*
X026500Y000800D01*
X027650Y001950D01*
X027650Y002000D01*
X027650Y002050D01*
X027650Y003800D01*
X028150Y004300D01*
X030950Y004300D01*
X031150Y004500D01*
X031150Y007200D01*
X030863Y007387D01*
X030476Y007387D01*
X023850Y004550D02*
X023850Y004300D01*
X023700Y004150D01*
X016400Y004150D01*
X015550Y005000D01*
X015550Y007100D01*
X015350Y007300D01*
X014800Y007300D01*
X014750Y007250D01*
X011700Y009200D02*
X011700Y012950D01*
X010600Y013450D02*
X010300Y013750D01*
X010300Y015900D01*
X010200Y016050D01*
X008100Y016050D01*
X007800Y015750D01*
X007800Y015550D01*
X010600Y013450D02*
X013000Y013450D01*
X013300Y013250D01*
X013300Y012950D01*
X014150Y012950D02*
X014150Y013900D01*
X014600Y013450D02*
X014600Y014950D01*
X015350Y013450D02*
X017750Y013450D01*
X018000Y013700D01*
X018000Y014200D01*
X010200Y012500D02*
X010200Y010600D01*
D21*
X018000Y014200D03*
D22*
X014750Y007250D03*
X023850Y004550D03*
M02*
