G75*
G70*
%OFA0B0*%
%FSLAX24Y24*%
%IPPOS*%
%LPD*%
%AMOC8*
5,1,8,0,0,1.08239X$1,22.5*
%
%ADD10C,0.1261*%
%ADD11R,0.0316X0.0980*%
%ADD12R,0.0930X0.0500*%
%ADD13R,0.1180X0.1580*%
%ADD14C,0.0600*%
%ADD15R,0.0789X0.0710*%
%ADD16R,0.0474X0.0631*%
%ADD17C,0.0680*%
%ADD18OC8,0.0680*%
%ADD19C,0.0680*%
%ADD20C,0.0640*%
%ADD21C,0.1390*%
%ADD22R,0.1596X0.2245*%
%ADD23R,0.1064X0.1773*%
%ADD24C,0.0671*%
%ADD25OC8,0.1064*%
%ADD26OC8,0.0930*%
%ADD27R,0.1261X0.1655*%
%ADD28C,0.0476*%
%ADD29OC8,0.0476*%
%ADD30R,0.0476X0.0476*%
D10*
X004806Y003987D03*
X004806Y015848D03*
X025691Y015848D03*
X025691Y004037D03*
D11*
X014154Y009212D03*
X013654Y009212D03*
X013154Y009212D03*
X012654Y009212D03*
X012654Y011834D03*
X013154Y011834D03*
X013654Y011834D03*
X014154Y011834D03*
D12*
X018020Y015310D03*
X018020Y015980D03*
X018020Y016650D03*
X018020Y017320D03*
X018020Y017990D03*
D13*
X004090Y013280D03*
X001190Y013280D03*
X023782Y006876D03*
X026682Y006876D03*
D14*
X014700Y003250D03*
X014700Y002250D03*
X012300Y002250D03*
X012300Y003250D03*
D15*
X012300Y005099D03*
X012300Y006401D03*
X014700Y006401D03*
X014700Y005099D03*
X004100Y005699D03*
X004100Y007001D03*
X006250Y012249D03*
X006250Y013551D03*
X011700Y015449D03*
X011700Y016751D03*
X015453Y016801D03*
X015453Y015499D03*
D16*
X013918Y015667D03*
X013170Y015667D03*
X013544Y016533D03*
D17*
X007785Y015550D03*
D18*
X008785Y015550D03*
X009785Y015550D03*
X009785Y016550D03*
X008785Y016550D03*
X007785Y016550D03*
D19*
X008350Y010988D02*
X008350Y010388D01*
X009350Y010388D02*
X009350Y010988D01*
X009350Y008650D02*
X009350Y008050D01*
X008350Y008050D02*
X008350Y008650D01*
X002800Y009050D02*
X002200Y009050D01*
X002200Y010050D02*
X002800Y010050D01*
D20*
X028924Y011262D03*
X028924Y012242D03*
X028924Y013032D03*
X028924Y014012D03*
D21*
X029994Y015222D03*
X029994Y010052D03*
D22*
X027097Y011312D03*
X023180Y011312D03*
D23*
X019450Y011653D03*
X019450Y008385D03*
X019450Y005797D03*
X019450Y002530D03*
D24*
X030476Y005615D03*
X030476Y007387D03*
D25*
X029492Y007879D03*
X029492Y005123D03*
D26*
X008350Y005334D03*
X008350Y002105D03*
D27*
X006281Y007995D03*
X006281Y010081D03*
D28*
X010200Y010600D03*
X011100Y012000D03*
X010200Y012500D03*
X011700Y012950D03*
X013300Y012950D03*
X014150Y012950D03*
X014600Y013450D03*
X014150Y013900D03*
X015350Y013450D03*
X014600Y014950D03*
X014950Y010900D03*
X011700Y009200D03*
D29*
X018000Y014200D03*
D30*
X014750Y007250D03*
X023850Y004550D03*
M02*
