G75*
G70*
%OFA0B0*%
%FSLAX24Y24*%
%IPPOS*%
%LPD*%
%AMOC8*
5,1,8,0,0,1.08239X$1,22.5*
%
%ADD10C,0.1261*%
%ADD11C,0.0600*%
%ADD12C,0.0680*%
%ADD13OC8,0.0680*%
%ADD14C,0.0680*%
%ADD15C,0.0640*%
%ADD16C,0.1390*%
%ADD17C,0.0671*%
%ADD18OC8,0.1064*%
%ADD19OC8,0.0930*%
%ADD20C,0.0476*%
%ADD21OC8,0.0476*%
%ADD22R,0.0476X0.0476*%
D10*
X004806Y003987D03*
X004806Y015848D03*
X025691Y015848D03*
X025691Y004037D03*
D11*
X014700Y003250D03*
X014700Y002250D03*
X012300Y002250D03*
X012300Y003250D03*
D12*
X007785Y015550D03*
D13*
X008785Y015550D03*
X009785Y015550D03*
X009785Y016550D03*
X008785Y016550D03*
X007785Y016550D03*
D14*
X008350Y010988D02*
X008350Y010388D01*
X009350Y010388D02*
X009350Y010988D01*
X009350Y008650D02*
X009350Y008050D01*
X008350Y008050D02*
X008350Y008650D01*
X002800Y009050D02*
X002200Y009050D01*
X002200Y010050D02*
X002800Y010050D01*
D15*
X028924Y011262D03*
X028924Y012242D03*
X028924Y013032D03*
X028924Y014012D03*
D16*
X029994Y015222D03*
X029994Y010052D03*
D17*
X030476Y007387D03*
X030476Y005615D03*
D18*
X029492Y005123D03*
X029492Y007879D03*
D19*
X008350Y005334D03*
X008350Y002105D03*
D20*
X011700Y009200D03*
X010200Y010600D03*
X011100Y012000D03*
X010200Y012500D03*
X011700Y012950D03*
X013300Y012950D03*
X014150Y012950D03*
X014600Y013450D03*
X014150Y013900D03*
X015350Y013450D03*
X014600Y014950D03*
X014950Y010900D03*
D21*
X018000Y014200D03*
D22*
X014750Y007250D03*
X023850Y004550D03*
M02*
